<svg xmlns="http://www.w3.org/2000/svg" version="1.1" xmlns:xlink="http://www.w3.org/1999/xlink" width="200" height="200"><svg xmlns="http://www.w3.org/2000/svg" version="1.1" xmlns:xlink="http://www.w3.org/1999/xlink" viewBox="0 0 200 200"><rect width="200" height="200" fill="url('#gradient')"></rect><defs><linearGradient id="SvgjsLinearGradient1001" gradientTransform="rotate(27 0.5 0.5)"><stop offset="0%" stop-color="#ffa724"></stop><stop offset="100%" stop-color="#f74d1b"></stop></linearGradient></defs><g><g fill="#ffffff" transform="matrix(2.373584080472338,0,0,2.373584080472338,44.454812237196094,116.64054346849953)" stroke="#ffffff" stroke-width="0"><path d="M12.95-14.22L12.95 0L9.54 0L4.50-8.85L4.50 0L1.07 0L1.07-14.22L4.50-14.22L9.53-5.37L9.53-14.22L12.95-14.22ZM21.36 0L21.26-1.14Q20.21 0.20 18.44 0.20L18.44 0.20Q16.70 0.20 15.81-0.82Q14.91-1.83 14.91-3.72L14.91-3.72L14.91-10.57L18.20-10.57L18.20-3.70Q18.20-2.34 19.52-2.34L19.52-2.34Q20.65-2.34 21.13-3.15L21.13-3.15L21.13-10.57L24.44-10.57L24.44 0L21.36 0ZM31.78-2.97L31.78-2.97Q31.78-3.39 31.34-3.64Q30.90-3.90 29.67-4.17Q28.44-4.44 27.64-4.89Q26.84-5.33 26.42-5.97Q26.00-6.60 26.00-7.42L26.00-7.42Q26.00-8.88 27.20-9.82Q28.40-10.76 30.34-10.76L30.34-10.76Q32.43-10.76 33.70-9.81Q34.97-8.87 34.97-7.32L34.97-7.32L31.67-7.32Q31.67-8.59 30.33-8.59L30.33-8.59Q29.81-8.59 29.46-8.31Q29.11-8.02 29.11-7.59L29.11-7.59Q29.11-7.15 29.54-6.88Q29.97-6.60 30.91-6.43Q31.86-6.25 32.57-6.01L32.57-6.01Q34.95-5.19 34.95-3.07L34.95-3.07Q34.95-1.62 33.67-0.71Q32.38 0.20 30.34 0.20L30.34 0.20Q28.98 0.20 27.92-0.29Q26.86-0.78 26.26-1.62Q25.66-2.46 25.66-3.39L25.66-3.39L28.74-3.39Q28.76-2.66 29.23-2.32Q29.70-1.98 30.43-1.98L30.43-1.98Q31.10-1.98 31.44-2.26Q31.78-2.53 31.78-2.97ZM45.73 0L42.44 0Q42.27-0.32 42.13-0.95L42.13-0.95Q41.22 0.20 39.59 0.20L39.59 0.20Q38.10 0.20 37.05-0.71Q36.01-1.61 36.01-2.98L36.01-2.98Q36.01-4.70 37.28-5.58Q38.54-6.46 40.97-6.46L40.97-6.46L41.98-6.46L41.98-7.01Q41.98-8.47 40.72-8.47L40.72-8.47Q39.55-8.47 39.55-7.31L39.55-7.31L36.26-7.31Q36.26-8.85 37.56-9.80Q38.87-10.76 40.89-10.76Q42.91-10.76 44.08-9.78Q45.25-8.79 45.28-7.07L45.28-7.07L45.28-2.39Q45.30-0.94 45.73-0.17L45.73-0.17L45.73 0ZM40.38-2.15L40.38-2.15Q41.00-2.15 41.40-2.41Q41.81-2.68 41.98-3.01L41.98-3.01L41.98-4.70L41.03-4.70Q39.31-4.70 39.31-3.15L39.31-3.15Q39.31-2.71 39.61-2.43Q39.91-2.15 40.38-2.15Z"></path></g></g></svg><style>@media (prefers-color-scheme: light) { :root { filter: none; } }
@media (prefers-color-scheme: dark) { :root { filter: none; } }
</style></svg>